<svg width="11" height="12" viewBox="0 0 11 12" fill="none" xmlns="http://www.w3.org/2000/svg">
<path d="M7.51539 4.4C7.33214 3.88006 6.85116 3.52378 6.30039 3.5H4.50039C3.75481 3.5 3.15039 4.10442 3.15039 4.85C3.15039 5.59558 3.75481 6.2 4.50039 6.2H6.30039C7.04597 6.2 7.65039 6.80442 7.65039 7.55C7.65039 8.29558 7.04597 8.9 6.30039 8.9H4.50039C3.94962 8.87622 3.46864 8.51994 3.28539 8" stroke="#40C4FF" stroke-width="0.9" stroke-linecap="round" stroke-linejoin="round"/>
<path d="M5.85039 2.14941C5.85039 1.90089 5.64892 1.69941 5.40039 1.69941C5.15186 1.69941 4.95039 1.90089 4.95039 2.14941H5.85039ZM4.95039 3.49941C4.95039 3.74794 5.15186 3.94941 5.40039 3.94941C5.64892 3.94941 5.85039 3.74794 5.85039 3.49941H4.95039ZM5.85059 8.89932C5.85059 8.65079 5.64911 8.44932 5.40059 8.44932C5.15206 8.44932 4.95059 8.65079 4.95059 8.89932H5.85059ZM4.95059 10.2493C4.95059 10.4978 5.15206 10.6993 5.40059 10.6993C5.64911 10.6993 5.85059 10.4978 5.85059 10.2493H4.95059ZM4.95039 2.14941V3.49941H5.85039V2.14941H4.95039ZM4.95059 8.89932V10.2493H5.85059V8.89932H4.95059Z" fill="#40C4FF"/>
</svg>
