<svg width="24" height="19" viewBox="0 0 24 19" fill="none" xmlns="http://www.w3.org/2000/svg">
<g clip-path="url(#clip0_57_134)">
<path d="M4.1614 2.62646C4.1614 1.42281 3.31652 0.447052 2.2743 0.447052C1.23209 0.447052 0.387207 1.42281 0.387207 2.62646V16.3735C0.387207 17.5772 1.23209 18.5529 2.2743 18.5529C3.31652 18.5529 4.1614 17.5772 4.1614 16.3735V2.62646Z" fill="#EEF0EE"/>
<path d="M11.9999 18.5529C15.5542 18.5529 18.4354 15.2379 18.4354 11.1485C18.4354 7.05918 15.5542 3.74411 11.9999 3.74411C8.44572 3.74411 5.56445 7.05918 5.56445 11.1485C5.56445 15.2379 8.44572 18.5529 11.9999 18.5529Z" fill="#EEF0EE"/>
<path d="M12.0241 15.9265C14.3847 15.9265 16.2983 13.7873 16.2983 11.1485C16.2983 8.50973 14.3847 6.37057 12.0241 6.37057C9.66359 6.37057 7.75 8.50973 7.75 11.1485C7.75 13.7873 9.66359 15.9265 12.0241 15.9265Z" fill="#EEF0EE" fill-opacity="0.58"/>
<path d="M23.6128 9.55588C23.6128 8.35222 22.7679 7.37646 21.7257 7.37646C20.6835 7.37646 19.8386 8.35222 19.8386 9.55588V16.3735C19.8386 17.5772 20.6835 18.5529 21.7257 18.5529C22.7679 18.5529 23.6128 17.5772 23.6128 16.3735V9.55588Z" fill="#EEF0EE"/>
</g>
<defs>
<clipPath id="clip0_57_134">
<rect width="24" height="19" fill="white"/>
</clipPath>
</defs>
</svg>
