<svg width="47" height="35" viewBox="0 0 47 35" fill="none" xmlns="http://www.w3.org/2000/svg">
<g clip-path="url(#clip0_57_134)">
<path d="M8.14919 4.83822C8.14919 2.62096 6.49463 0.823517 4.45362 0.823517C2.41262 0.823517 0.758057 2.62096 0.758057 4.83822V30.1618C0.758057 32.379 2.41262 34.1765 4.45362 34.1765C6.49463 34.1765 8.14919 32.379 8.14919 30.1618V4.83822Z" fill="#42FF00"/>
<path d="M23.5 34.1765C30.4604 34.1765 36.1029 28.0698 36.1029 20.5368C36.1029 13.0038 30.4604 6.89706 23.5 6.89706C16.5397 6.89706 10.8972 13.0038 10.8972 20.5368C10.8972 28.0698 16.5397 34.1765 23.5 34.1765Z" fill="#42FF00"/>
<path d="M23.5472 29.3382C28.1699 29.3382 31.9173 25.3977 31.9173 20.5368C31.9173 15.6758 28.1699 11.7353 23.5472 11.7353C18.9245 11.7353 15.177 15.6758 15.177 20.5368C15.177 25.3977 18.9245 29.3382 23.5472 29.3382Z" fill="black"/>
<path d="M46.242 17.6029C46.242 15.3857 44.5874 13.5882 42.5464 13.5882C40.5054 13.5882 38.8508 15.3857 38.8508 17.6029V30.1618C38.8508 32.379 40.5054 34.1765 42.5464 34.1765C44.5874 34.1765 46.242 32.379 46.242 30.1618V17.6029Z" fill="#42FF00"/>
</g>
<defs>
<clipPath id="clip0_57_134">
<rect width="47" height="35" fill="white"/>
</clipPath>
</defs>
</svg>

