<svg width="24" height="24" viewBox="0 0 24 24" fill="none" xmlns="http://www.w3.org/2000/svg">
<path d="M14 8V6C14 4.89543 13.1046 4 12 4H5C3.89543 4 3 4.89543 3 6V18C3 19.1046 3.89543 20 5 20H12C13.1046 20 14 19.1046 14 18V16" stroke="white" stroke-width="2" stroke-linecap="round" stroke-linejoin="round"/>
<path d="M7 11C6.44772 11 6 11.4477 6 12C6 12.5523 6.44772 13 7 13V11ZM21 12V13C21.4045 13 21.7691 12.7564 21.9239 12.3827C22.0787 12.009 21.9931 11.5789 21.7071 11.2929L21 12ZM18.7071 8.29289C18.3166 7.90237 17.6834 7.90237 17.2929 8.29289C16.9024 8.68342 16.9024 9.31658 17.2929 9.70711L18.7071 8.29289ZM17.2929 14.2929C16.9024 14.6834 16.9024 15.3166 17.2929 15.7071C17.6834 16.0976 18.3166 16.0976 18.7071 15.7071L17.2929 14.2929ZM21.7071 12.7071C22.0976 12.3166 22.0976 11.6834 21.7071 11.2929C21.3166 10.9024 20.6834 10.9024 20.2929 11.2929L21.7071 12.7071ZM7 13H21V11H7V13ZM21.7071 11.2929L18.7071 8.29289L17.2929 9.70711L20.2929 12.7071L21.7071 11.2929ZM18.7071 15.7071L21.7071 12.7071L20.2929 11.2929L17.2929 14.2929L18.7071 15.7071Z" fill="white"/>
</svg>
