<svg width="30" height="30" viewBox="0 0 30 30" fill="none" xmlns="http://www.w3.org/2000/svg">
<path d="M7.5 4C6.94772 4 6.5 4.44772 6.5 5C6.5 5.55228 6.94772 6 7.5 6V4ZM7.5 6C8.05228 6 8.5 5.55228 8.5 5C8.5 4.44772 8.05228 4 7.5 4V6ZM12.25 5C12.25 4.44772 11.8023 4 11.25 4C10.6977 4 10.25 4.44772 10.25 5H12.25ZM10.25 27.5C10.25 28.0523 10.6977 28.5 11.25 28.5C11.8023 28.5 12.25 28.0523 12.25 27.5H10.25ZM7.5 6H21.25V4H7.5V6ZM21.25 6C22.0784 6 22.75 6.67157 22.75 7.5H24.75C24.75 5.567 23.183 4 21.25 4V6ZM22.75 7.5V22.5H24.75V7.5H22.75ZM22.75 22.5C22.75 23.3284 22.0784 24 21.25 24V26C23.183 26 24.75 24.433 24.75 22.5H22.75ZM21.25 24H7.5V26H21.25V24ZM7.5 24C7.36193 24 7.25 23.8881 7.25 23.75H5.25C5.25 24.9926 6.25736 26 7.5 26V24ZM7.25 23.75V6.25H5.25V23.75H7.25ZM7.25 6.25C7.25 6.11193 7.36193 6 7.5 6V4C6.25736 4 5.25 5.00736 5.25 6.25H7.25ZM10.25 5V27.5H12.25V5H10.25Z" fill="white"/>
<path fill-rule="evenodd" clip-rule="evenodd" d="M16.25 10H18.75H16.25Z" fill="white"/>
<path d="M16.25 10H18.75" stroke="white" stroke-width="2" stroke-linecap="round" stroke-linejoin="round"/>
<path d="M16.25 15H18.75" stroke="white" stroke-width="2" stroke-linecap="round" stroke-linejoin="round"/>
</svg>
