<svg width="40" height="41" viewBox="0 0 40 41" fill="none" xmlns="http://www.w3.org/2000/svg">
<path fill-rule="evenodd" clip-rule="evenodd" d="M0 8.91992C0 4.50165 3.58172 0.919922 8 0.919922H31.1609C35.5792 0.919922 39.1609 4.50164 39.1609 8.91992V32.0808C39.1609 36.4991 35.5792 40.0808 31.1609 40.0808H8C3.58172 40.0808 0 36.4991 0 32.0808V8.91992Z" fill="#42FF00"/>
<path d="M27.2494 13.9734C26.5849 12.0881 24.8409 10.7962 22.8438 10.71H16.317C13.6135 10.71 11.4219 12.9016 11.4219 15.6051C11.4219 18.3086 13.6135 20.5002 16.317 20.5002H22.8438C25.5473 20.5002 27.7389 22.6918 27.7389 25.3953C27.7389 28.0988 25.5473 30.2904 22.8438 30.2904H16.317C14.3199 30.2042 12.5758 28.9123 11.9114 27.027" stroke="black" stroke-width="3.26341" stroke-linecap="round" stroke-linejoin="round"/>
<path d="M21.2118 5.81543C21.2118 4.91426 20.4813 4.18373 19.5801 4.18373C18.679 4.18373 17.9484 4.91426 17.9484 5.81543H21.2118ZM17.9484 10.7105C17.9484 11.6117 18.679 12.3422 19.5801 12.3422C20.4813 12.3422 21.2118 11.6117 21.2118 10.7105H17.9484ZM21.2118 30.2911C21.2118 29.3899 20.4812 28.6594 19.5801 28.6594C18.6789 28.6594 17.9484 29.3899 17.9484 30.2911H21.2118ZM17.9484 35.1862C17.9484 36.0874 18.6789 36.8179 19.5801 36.8179C20.4812 36.8179 21.2118 36.0874 21.2118 35.1862H17.9484ZM17.9484 5.81543V10.7105H21.2118V5.81543H17.9484ZM17.9484 30.2911V35.1862H21.2118V30.2911H17.9484Z" fill="black"/>
</svg>
