<svg width="40" height="41" viewBox="0 0 40 41" fill="none" xmlns="http://www.w3.org/2000/svg">
<path fill-rule="evenodd" clip-rule="evenodd" d="M0 8.91992C0 4.50165 3.58172 0.919922 8 0.919922H31.1609C35.5792 0.919922 39.1609 4.50164 39.1609 8.91992V32.0808C39.1609 36.4991 35.5792 40.0808 31.1609 40.0808H8C3.58172 40.0808 0 36.4991 0 32.0808V8.91992Z" fill="#42FF00"/>
<circle cx="19.5808" cy="20.5007" r="3.26341" stroke="black" stroke-width="3.26341" stroke-linecap="round" stroke-linejoin="round"/>
<path d="M35.8978 20.5001C31.546 28.1152 26.1075 31.922 19.5807 31.922C13.0539 31.922 7.61543 28.1152 3.26367 20.5001C7.61543 12.8849 13.0539 9.07812 19.5807 9.07812C26.1075 9.07812 31.546 12.8849 35.8978 20.5001" stroke="black" stroke-width="3.26341" stroke-linecap="round" stroke-linejoin="round"/>
</svg>
